<?xml version="1.0" encoding="UTF-8"?>
<!-- Generator: Adobe Illustrator 25.3.1, SVG Export Plug-In . SVG Version: 6.00 Build 0)  -->
<svg xmlns="http://www.w3.org/2000/svg" xmlns:xlink="http://www.w3.org/1999/xlink" version="1.1" id="Capa_1" x="0px" y="0px" viewBox="0 0 512 512" style="enable-background:new 0 0 512 512;" xml:space="preserve" width="512" height="512">
<g>
	<g>
		<g>
			<path style="fill:#FF7694;" d="M380.479,389.961l73.293-1.772c0,0-5.056-29.665-33.64-32.894     C381.955,350.98,380.479,389.961,380.479,389.961z"/>
		</g>
		<g>
			<path style="fill:#000F47;" d="M406.67,383.141l-24.47-2.174l0.174-1.945l21.075,1.873c-0.635-1.966-1.305-5.585,0.277-9.819     c2.444-6.537,9.198-11.928,20.077-16.022l0.688,1.827c-10.33,3.886-16.701,8.893-18.937,14.88     c-2.035,5.448,0.229,9.741,0.252,9.784L406.67,383.141z"/>
		</g>
		<g>
			<path style="fill:#000F47;" d="M390.704,365.893l-1.023-1.666c0.384-0.235,9.49-5.701,20.7-1.179l-0.732,1.81     C399.354,360.704,390.789,365.839,390.704,365.893z"/>
		</g>
	</g>
	<g>
		<g>
			<polygon style="fill:#000F47;" points="210.608,350.199 361.426,371.676 348.736,426.829 182.544,394.86    "/>
		</g>
		<g>
			<polygon style="fill:#007AE8;" points="212.804,354.961 353.86,374.604 343.855,420.972 189.377,391.685    "/>
		</g>
		<g>
			
				<rect x="280.647" y="295.368" transform="matrix(0.1437 -0.9896 0.9896 0.1437 -125.0939 595.6052)" style="fill:#000F47;" width="1.955" height="149.44"/>
		</g>
		<g>
			
				<rect x="269.238" y="319.625" transform="matrix(0.1913 -0.9815 0.9815 0.1913 -173.4658 588.2188)" style="fill:#000F47;" width="1.954" height="159.497"/>
		</g>
		<g>
			
				<rect x="272.231" y="312.497" transform="matrix(0.1844 -0.9829 0.9829 0.1844 -161.0632 587.0844)" style="fill:#000F47;" width="1.95" height="156.183"/>
		</g>
		<g>
			
				<rect x="275.766" y="303.897" transform="matrix(0.1649 -0.9863 0.9863 0.1649 -143.07 589.7444)" style="fill:#000F47;" width="1.952" height="150.933"/>
		</g>
		<g>
			
				<rect x="315.28" y="395.227" transform="matrix(0.2493 -0.9684 0.9684 0.2493 -127.8007 627.5424)" style="fill:#000F47;" width="51.17" height="1.952"/>
		</g>
		<g>
			
				<rect x="201.637" y="376.206" transform="matrix(0.4249 -0.9052 0.9052 0.4249 -212.0037 420.6662)" style="fill:#000F47;" width="46.86" height="1.954"/>
		</g>
		<g>
			
				<rect x="277.914" y="389.429" transform="matrix(0.2862 -0.9582 0.9582 0.2862 -158.2082 568.428)" style="fill:#000F47;" width="49.03" height="1.952"/>
		</g>
		<g>
			
				<rect x="288.926" y="391.138" transform="matrix(0.2771 -0.9609 0.9609 0.2771 -149.6577 585.3199)" style="fill:#000F47;" width="50.435" height="1.953"/>
		</g>
		<g>
			<polygon style="fill:#000F47;" points="323.571,419.005 321.673,418.542 333.511,369.857 335.408,370.32    "/>
		</g>
		<g>
			
				<rect x="189.443" y="373.81" transform="matrix(0.4427 -0.8967 0.8967 0.4427 -217.6339 399.4173)" style="fill:#000F47;" width="46.111" height="1.954"/>
		</g>
		<g>
			
				<rect x="218.539" y="373.749" transform="matrix(0.3435 -0.9392 0.9392 0.3435 -196.5157 468.3348)" style="fill:#000F47;" width="36.363" height="1.953"/>
		</g>
		<g>
			
				<rect x="229.795" y="375.73" transform="matrix(0.271 -0.9626 0.9626 0.271 -181.9518 513.1511)" style="fill:#000F47;" width="36.058" height="1.953"/>
		</g>
		<g>
			
				<rect x="240.774" y="376.963" transform="matrix(0.2216 -0.9751 0.9751 0.2216 -166.2827 547.5735)" style="fill:#000F47;" width="38.124" height="1.952"/>
		</g>
		<g>
			
				<rect x="250.932" y="378.874" transform="matrix(0.2563 -0.9666 0.9666 0.2563 -166.2781 543.5804)" style="fill:#000F47;" width="38.374" height="1.952"/>
		</g>
		<g>
			
				<rect x="262.898" y="381.131" transform="matrix(0.1965 -0.9805 0.9805 0.1965 -147.9756 583.6375)" style="fill:#000F47;" width="38.45" height="1.953"/>
		</g>
		<g>
			
				<rect x="272.746" y="382.932" transform="matrix(0.277 -0.9609 0.9609 0.277 -157.6209 558.3348)" style="fill:#000F47;" width="38.927" height="1.952"/>
		</g>
	</g>
	<g>
		<g>
			<g>
				<path style="fill:#000F47;" d="M396.487,238.511c0,0,19.85-33.514,48.159-27.332c28.311,6.18,32.215,54.668,32.215,54.668      s20.176-28.963,35.139,3.574l-27.66,16.272c0,0-5.207-15.946-15.617-14.317c-10.412,1.629-5.529,12.365-5.529,12.365      l-8.95,1.953c0,0-6.996-29.936,16.429-19.524c0,0-7.809-44.254-26.68-50.436C425.123,209.552,396.487,238.511,396.487,238.511z"/>
			</g>
			<g>
				<path style="fill:#007AE8;" d="M491.618,282.001l-1.951-0.029c0-0.07,0.05-7.185-3.572-10.476      c-1.454-1.32-3.273-1.844-5.55-1.592l-0.213-1.941c2.837-0.31,5.219,0.396,7.08,2.092      C491.686,273.943,491.624,281.673,491.618,282.001z"/>
			</g>
			<g>
				<path style="fill:#007AE8;" d="M497.508,277.432c-0.004-0.085-0.574-8.608-5.079-11.75c-1.778-1.243-4.008-1.474-6.609-0.693      l-0.56-1.873c3.215-0.962,6-0.636,8.29,0.966c5.28,3.69,5.884,12.846,5.909,13.234L497.508,277.432z"/>
			</g>
			<g>
				<path style="fill:#007AE8;" d="M504.485,273.34c-0.006-0.074-0.591-7.565-5.108-11.092c-2.085-1.629-4.728-2.168-7.873-1.627      l-0.334-1.922c3.702-0.648,6.877,0.027,9.415,2.015c5.203,4.073,5.824,12.15,5.847,12.491L504.485,273.34z"/>
			</g>
		</g>
		<g>
			<g>
				<g>
					<polygon style="fill:#F73E4C;" points="111.122,213.944 101.523,269.586 119.257,271.862 118.279,217.685      "/>
				</g>
				<g>
					<path style="fill:#FF7694;" d="M148.622,202.801l-3.492,35.874c0,0-84.12-45.639-145.13,33.187L32.213,85.171       C32.213,85.171,59.789,186.692,148.622,202.801z"/>
				</g>
				<g>
					<path style="fill:#F73E4C;" d="M32.701,98.104C89.401,207.68,3.906,261.613,3.906,261.613L32.701,98.104z"/>
				</g>
				<g>
					<path style="fill:#FF7694;" d="M47.101,148.867c0,0-8.786,24.404-42.073,19.879l-2.999,19.009c0,0,14.809,2.354,35.552,27.978       C37.581,215.732,55.887,181.568,47.101,148.867z"/>
				</g>
				<g>
					<path style="fill:#000F47;" d="M9.738,178.518c0,3.855-1.082,6.979-2.417,6.979c-1.337,0-2.419-3.124-2.419-6.979       s1.082-6.979,2.419-6.979C8.656,171.538,9.738,174.663,9.738,178.518z"/>
				</g>
				<g>
					<path style="fill:#F73E4C;" d="M92.129,226.253l-1.379-1.383c0.16-0.161,15.862-16.269,7.627-42.276l1.862-0.592       C108.845,209.183,92.298,226.086,92.129,226.253z"/>
				</g>
				<g>
					
						<rect x="128.854" y="219.762" transform="matrix(0.0974 -0.9952 0.9952 0.0974 -87.1209 345.4118)" style="fill:#F73E4C;" width="36.044" height="1.952"/>
				</g>
			</g>
			<g>
				<g>
					<path style="fill:#000F47;" d="M176.525,256.08c0,0-8.462,48.809-26.031,49.137c-17.571,0.322-26.357-51.74-26.357-51.74       l-10.412,6.182c0,0,6.835,53.365,35.467,51.412C177.826,309.121,176.525,256.08,176.525,256.08z"/>
				</g>
				<g>
					<path style="fill:#000F47;" d="M121.767,264.053v10.581c0,0-23.897,6.27-30.729-15.462       c-6.052-19.249,5.525-38.11,22.667-28.385c6.99-11.872,19.561-17.572,22.236-6.5       C139.845,240.372,121.767,264.053,121.767,264.053z"/>
				</g>
				<g>
					<path style="fill:#007AE8;" d="M126.377,234.749c0,0,0.028,0.107,0.084,0.314c0.048,0.227,0.158,0.475,0.229,0.96       c0.187,0.991,0.24,2.285,0.062,3.923c-0.382,3.248-1.773,7.683-4.694,12.316c-0.729,1.158-1.576,2.316-2.576,3.427       c-1.008,1.1-2.152,2.195-3.686,2.951c-0.77,0.345-1.678,0.656-2.669,0.479c-0.959-0.151-1.896-0.719-2.417-1.466       c-1.154-1.458-1.558-3.171-1.885-4.848c-0.325-1.675-0.429-3.432-0.464-5.143c0.035-1.777,0.129-3.545,0.471-5.298       c0.583-3.518,1.849-6.947,3.505-10.141c1.705-3.176,3.848-6.111,6.387-8.591c2.555-2.42,5.479-4.563,8.85-5.349       c1.663-0.376,3.483-0.293,4.971,0.524c1.501,0.797,2.482,2.23,3.033,3.673c1.091,2.955,1.146,5.884,0.955,8.57       c-0.063,0.667-0.125,1.321-0.186,1.959c-0.118,0.628-0.234,1.243-0.347,1.842c-0.19,1.206-0.534,2.312-0.813,3.361       c-0.6,2.083-1.231,3.871-1.83,5.306c-0.56,1.453-1.078,2.558-1.427,3.316c-0.346,0.756-0.531,1.161-0.531,1.161       s0.179-0.407,0.511-1.171c0.336-0.762,0.836-1.877,1.369-3.338c0.574-1.445,1.173-3.238,1.735-5.323       c0.26-1.049,0.583-2.155,0.751-3.357c0.102-0.595,0.207-1.208,0.314-1.835c0.048-0.632,0.099-1.282,0.15-1.943       c0.075-0.661,0.094-1.334,0.044-2.019c-0.037-0.683-0.021-1.383-0.1-2.091c-0.252-1.425-0.414-2.895-1.012-4.266       c-0.553-1.377-1.497-2.68-2.867-3.376c-1.357-0.712-3.017-0.772-4.581-0.392c-3.167,0.789-5.989,2.913-8.431,5.314       c-2.431,2.457-4.473,5.358-6.078,8.475c-1.558,3.138-2.728,6.481-3.23,9.883c-0.303,1.691-0.359,3.407-0.368,5.054       c0.064,1.716,0.192,3.351,0.527,4.941c0.316,1.563,0.779,3.141,1.665,4.193c0.854,1.103,2.135,1.193,3.349,0.547       c2.415-1.325,4.163-3.745,5.514-5.905c2.704-4.443,3.947-8.721,4.231-11.638c0.14-1.458,0.047-2.626-0.082-3.272       c-0.04-0.341-0.183-0.692-0.226-0.884c-0.059-0.208-0.09-0.314-0.09-0.314L126.377,234.749z"/>
				</g>
				<g>
					<rect x="112.749" y="258.448" style="fill:#007AE8;" width="1.953" height="17.023"/>
				</g>
				<g>
					
						<rect x="93.949" y="264.132" transform="matrix(0.9992 -0.0403 0.0403 0.9992 -10.5876 4.3949)" style="fill:#007AE8;" width="19.784" height="1.953"/>
				</g>
				<g>
					
						<rect x="89.906" y="253.359" transform="matrix(0.9999 -0.0159 0.0159 0.9999 -4.0283 1.6187)" style="fill:#007AE8;" width="19.907" height="1.951"/>
				</g>
				<g>
					
						<rect x="99.005" y="232.251" transform="matrix(0.1498 -0.9887 0.9887 0.1498 -153.9443 304.3128)" style="fill:#007AE8;" width="1.952" height="18.844"/>
				</g>
			</g>
		</g>
		<g>
			<g>
				<polygon style="fill:#000F47;" points="279.024,274.628 306.03,341.009 321.976,341.009 282.603,274.628     "/>
			</g>
			<g>
				<path style="fill:#000F47;" d="M349.958,347.515h-88.506C261.452,347.515,261.777,309.771,349.958,347.515z"/>
			</g>
			<g>
				<g>
					<path style="fill:#000F47;" d="M414.709,131.456l-34.166,169.532l-194.909-14.645l-31.238-177.66       C154.397,108.683,274.466,96.966,414.709,131.456z"/>
				</g>
				<g>
					<polygon style="fill:#007AE8;" points="401.694,137.316 369.806,292.525 194.094,279.183 163.51,117.142      "/>
				</g>
				<g>
					<g>
						<polygon style="fill:#000F47;" points="293.245,206.705 299.447,207.139 306.786,204.581 310.543,199.448 311.925,191.72         315.911,197.329 323.872,209.744 329.414,224.197 332.939,234.5 334.858,252.419 333.342,264.914 330.152,271.625         324.897,274.434 321.971,274.641       "/>
					</g>
					<g>
						<path style="fill:#000F47;" d="M334.763,240.192c0.738,4.92,1.071,10.092,0.85,15.462        c-1.529,37.589-29.13,10.164-29.13,10.164s25.673,23.101,26.756-11.254c1.086-34.356-20.84-60.456-20.84-60.456        c-2.716,29.103-28.984,8.122-28.984,8.122s24.337,16.648,28.104-12.101C311.518,190.128,330.352,210.649,334.763,240.192"/>
					</g>
					<g>
						<path style="fill:#000F47;" d="M307.894,192.647c0,0,3.752-2.645,11.371,2.077c0,0-7.503-7.788-11.952-5.606L307.894,192.647z        "/>
					</g>
					<g>
						<path style="fill:#FFFFFF;" d="M295.167,207.801c0,0,13.716,3.603,17.231-13.693l6.866,8.449l-17.385,20.864L295.167,207.801z        "/>
					</g>
					<g>
						<path style="fill:#FF7694;" d="M334.337,249.289c0,0,1.67,19.459-8.134,23.275        C326.203,272.564,320.793,247.336,334.337,249.289z"/>
					</g>
				</g>
				<g>
					<g>
						<path style="fill:#FFFFFF;" d="M248.191,171.715c0,10.169-6.067,18.413-13.545,18.413c-7.48,0-13.545-8.244-13.545-18.413        c0-10.17,6.065-18.413,13.545-18.413C242.124,153.302,248.191,161.545,248.191,171.715z"/>
					</g>
					<g>
						<path style="fill:#000F47;" d="M243.308,171.075c0,2.29-0.764,4.146-1.707,4.146c-0.944,0-1.708-1.856-1.708-4.146        c0-2.294,0.764-4.148,1.708-4.148C242.544,166.927,243.308,168.781,243.308,171.075z"/>
					</g>
				</g>
				<g>
					<g>
						<path style="fill:#FFFFFF;" d="M307.216,165.096c0,17.587-11.3,31.846-25.241,31.846c-13.941,0-25.243-14.259-25.243-31.846        c0-17.591,11.302-31.85,25.243-31.85C295.916,133.246,307.216,147.505,307.216,165.096z"/>
					</g>
					<g>
						<path style="fill:#000F47;" d="M274.546,169.12c0,5.93-2.403,10.74-5.368,10.74c-2.965,0-5.371-4.809-5.371-10.74        c0-5.93,2.406-10.736,5.371-10.736C272.143,158.384,274.546,163.19,274.546,169.12z"/>
					</g>
				</g>
				<g>
					<polygon style="fill:#FFB206;" points="181.073,132.759 179.938,130.319 175.442,130.319 175.442,132.759 174.083,132.759        175.442,143.336 190.026,144.474 190.026,132.759      "/>
				</g>
				<g>
					<polygon style="fill:#FFB206;" points="184.978,155.741 183.844,153.302 179.348,153.302 179.348,155.741 177.985,155.741        179.348,166.316 193.931,167.454 193.931,155.741      "/>
				</g>
				<g>
					<polygon style="fill:#FFB206;" points="188.233,178.415 187.098,175.973 182.602,175.973 182.602,178.415 181.24,178.415        182.602,188.99 197.185,190.128 197.185,178.415      "/>
				</g>
				<g>
					<g>
						<polygon style="fill:#FFFFFF;" points="354.958,279.611 352.762,263.746 370.334,265.455 363.255,281.483       "/>
					</g>
					<g>
						<path style="fill:#007AE8;" d="M363.169,268.878c-5.868,0-10.612-4.274-10.677-4.332l0.66-0.719        c0.35,0.32,8.661,7.78,16.647,1.782l0.587,0.781C367.95,268.218,365.473,268.878,363.169,268.878z"/>
					</g>
				</g>
				<g>
					<g>
						<polygon style="fill:#FFFFFF;" points="370.092,284.064 193.604,269.099 195.069,277.719 368.664,291.224       "/>
					</g>
					<g>
						
							<rect x="215.855" y="266.117" transform="matrix(0.9986 -0.052 0.052 0.9986 -13.9198 11.6533)" style="fill:#007AE8;" width="1.953" height="14.052"/>
					</g>
					<g>
						
							<rect x="343.202" y="279.427" transform="matrix(0.9999 -0.0161 0.0161 0.9999 -4.5248 5.5669)" style="fill:#007AE8;" width="1.953" height="9.896"/>
					</g>
					<g>
						<path style="fill:#F73E4C;" d="M229.235,275.919c0,1.534-1.913,2.775-4.271,2.775c-2.357,0-4.271-1.241-4.271-2.775        c0-1.534,1.914-2.775,4.271-2.775C227.322,273.144,229.235,274.385,229.235,275.919z"/>
					</g>
					<g>
						<path style="fill:#FF6700;" d="M241.926,276.815c0,1.532-1.913,2.775-4.27,2.775c-2.36,0-4.271-1.243-4.271-2.775        c0-1.532,1.911-2.775,4.271-2.775C240.013,274.04,241.926,275.283,241.926,276.815z"/>
					</g>
					<g>
						<path style="fill:#000F47;" d="M253.964,277.79c0,1.534-1.911,2.775-4.268,2.775c-2.36,0-4.271-1.241-4.271-2.775        c0-1.53,1.911-2.775,4.271-2.775C252.053,275.016,253.964,276.26,253.964,277.79z"/>
					</g>
					<g>
						<path style="fill:#FF7694;" d="M265.515,278.694c0,1.534-1.911,2.777-4.271,2.777c-2.358,0-4.269-1.243-4.269-2.777        c0-1.534,1.911-2.775,4.269-2.775C263.604,275.919,265.515,277.16,265.515,278.694z"/>
					</g>
					<g>
						<path style="fill:#007AE8;" d="M277.474,279.59c0,1.534-1.914,2.777-4.271,2.777c-2.36,0-4.271-1.243-4.271-2.777        c0-1.532,1.911-2.775,4.271-2.775C275.56,276.815,277.474,278.058,277.474,279.59z"/>
					</g>
					<g>
						
							<rect x="204.06" y="265.12" transform="matrix(0.1415 -0.9899 0.9899 0.1415 -95.0092 438.0257)" style="fill:#000F47;" width="1.953" height="17.339"/>
					</g>
					<g>
						<rect x="346.863" y="284.717" style="fill:#000F47;" width="6.997" height="1.951"/>
					</g>
					<g>
						
							<rect x="361.18" y="281.509" transform="matrix(0.12 -0.9928 0.9928 0.12 34.508 611.4532)" style="fill:#000F47;" width="1.952" height="9.505"/>
					</g>
				</g>
				<g style="opacity:0.2;">
					<polygon style="fill:#FFFFFF;" points="168.679,123.061 253.964,127.942 193.604,265.108      "/>
				</g>
			</g>
		</g>
	</g>
</g>















</svg>
