<svg id="Layer_1" height="512" viewBox="0 0 512 512" width="512" xmlns="http://www.w3.org/2000/svg" data-name="Layer 1"><path d="m403.41 440.92c-4.84 10-8.48 7.92-13.62 7a14.19 14.19 0 0 0 -6.27.1 15.44 15.44 0 0 1 -2 .41c-7.23 1.12-9-3.84-11.93-18.79-2.25-11.64 8.94-19.44 15.41-22.91 1.09-.59 2.05-1.05 2.78-1.38 1-.44 1.58-.67 1.58-.67l7.56 2.24.72.21a25.54 25.54 0 0 1 2.55 3c3.81 5.14 10.04 16.6 3.22 30.79z" fill="#adc55e"/><path d="m400.19 410.1-.2 1.19-2.87-.75-7.2-1.85-4.9-.43c0-.51 0-1 0-1.53-.67-55.9-30.41-80.5-51.36-90.89a83 83 0 0 0 -18.85-6.84c-.91-.2-1.42-.28-1.42-.28l4.83-4.75 7.22-7.14 9.74-9.59 4.29-4.22.51-.5 1.26.48c2.49.95 4.88 2 7.16 3.1 64.29 30.6 53.51 113.16 51.79 124z" fill="#adc55e"/><path d="m403.41 440.92c-4.84 10-8.48 7.92-13.62 7 13.32-4.95 8.43-32 7.33-37.38l-.2-.91c0-.92 0-1.82 0-2.71-.06-82.86-40.25-110.73-61.74-119.7a59.25 59.25 0 0 0 -13.2-4l17.49-.18h1.77c2.49.95 4.88 2 7.16 3.1 64.29 30.62 53.51 113.18 51.79 124 3.81 5.13 10.04 16.59 3.22 30.78z" fill="#fff" opacity=".32"/><path d="m104.9 440.92c4.84 10 8.48 7.92 13.62 7a14.19 14.19 0 0 1 6.27.1 15.44 15.44 0 0 0 2 .41c7.23 1.12 9-3.84 11.93-18.79 2.28-11.66-8.91-19.44-15.38-22.91-1.09-.59-2-1.05-2.79-1.38-1-.44-1.58-.67-1.58-.67l-7.56 2.24-.71.21a24.41 24.41 0 0 0 -2.55 3c-3.88 5.14-10.07 16.6-3.25 30.79z" fill="#9cb748"/><path d="m108.12 410.1.2 1.19 2.87-.75 7.2-1.85 4.9-.43c0-.51 0-1 0-1.53.66-55.9 30.41-80.5 51.36-90.89a83 83 0 0 1 18.85-6.84c.91-.2 1.42-.28 1.42-.28l-4.83-4.72-7.22-7.14-9.74-9.59-4.29-4.27-.51-.5q-.63.22-1.26.48c-2.5.95-4.88 2-7.16 3.1-64.29 30.62-53.51 113.18-51.79 124.02z" fill="#9cb748"/><path d="m104.9 440.92c4.84 10 8.48 7.92 13.62 7-13.32-4.95-8.43-32-7.33-37.38l.2-.91c0-.92 0-1.82 0-2.71.07-82.86 40.26-110.73 61.75-119.7a59.25 59.25 0 0 1 13.2-4l-17.5-.22h-1.77c-2.5.95-4.88 2-7.16 3.1-64.29 30.62-53.51 113.18-51.79 124-3.85 5.17-10.04 16.63-3.22 30.82z" fill="#fff" opacity=".32"/><path d="m359.93 375.25c0 2.73 0 5.45-.14 8.14a233.39 233.39 0 0 1 -10.54 63.19 346.76 346.76 0 0 1 -45.11 7.26c-13.57 1.33-27.87 2-42.64 2-10.22 0-20.21-.33-29.89-1q-6.12-.4-12.05-1a345 345 0 0 1 -47.24-7.68 232.83 232.83 0 0 1 -10.43-62.47c-.1-2.81-.15-5.66-.15-8.51a248.82 248.82 0 0 1 2.26-33.46 221.5 221.5 0 0 1 6.41-31.07c.42-1.58.89-3.15 1.37-4.71q1-3.12 2-6.17c13.1-38.28 35.88-67 63.07-77.7a64.79 64.79 0 0 1 24-4.66c37.54 0 70.21 33.25 87 82.28 1.13 3.36 2.2 6.8 3.21 10.29.46 1.58.9 3.22 1.32 4.84a223.6 223.6 0 0 1 5.29 26.84 246.28 246.28 0 0 1 2.26 33.59z" fill="#adc55e"/><path d="m219.08 414.08a242.53 242.53 0 0 0 12.53 40.81q-6.12-.4-12.05-1a345 345 0 0 1 -47.24-7.68 232.83 232.83 0 0 1 -10.43-62.47c-.1-2.81-.15-5.66-.15-8.51a248.82 248.82 0 0 1 2.26-33.51 221.5 221.5 0 0 1 6.41-31.07c.42-1.58.89-3.15 1.37-4.71q1-3.12 2-6.17c13.1-38.28 35.88-67 63.07-77.7-4.5 8.12-8.84 19.94-12.56 34.25-8.17 31.57-13.29 75.21-10.54 117.68a289.83 289.83 0 0 0 5.33 40.08z" fill="#9cb748"/><path d="m327.78 358.54c0 6-.24 12-.68 17.82-2.36 31-10.79 58.3-23 77.48-13.57 1.33-27.87 2-42.64 2-10.22 0-20.21-.33-29.89-1q-6.12-.4-12.05-1c-12.2-19.21-20.66-46.57-23-77.65-.46-5.78-.68-11.7-.68-17.72 0-42.37 11.26-79.8 28.44-102.22 10.65-13.9 23.57-22 37.51-22 36.46.03 65.99 55.67 65.99 124.29z" fill="#feeac0"/><ellipse cx="260.49" cy="291.7" opacity=".11" rx="94.18" ry="34.58"/><path d="m417.79 211.27c0 57.1-70.79 103.37-158.11 103.37a236.55 236.55 0 0 1 -45.2-4.28c-7-1.37-13.86-3.06-20.44-5-54.57-16.29-92.51-52.29-92.51-94.07 0-57.09 70.8-103.37 158.15-103.37a239.14 239.14 0 0 1 25.77 1.37c75.05 8.03 132.34 50.61 132.34 101.98z" fill="#adc55e"/><path d="m254.86 192c-35 32.92-46.31 75.6-40.38 118.35-65.32-12.72-112.95-52.27-112.95-99.09 0-57.09 70.8-103.37 158.15-103.37a239.14 239.14 0 0 1 25.77 1.37c4.94 21.84 2.15 51.92-30.59 82.74z" fill="#8baa3d" opacity=".82"/><path d="m364.26 21.74a4.09 4.09 0 0 1 -3.17-1.22c-.44-.45-10.65-10.54-24.91-4.44a4 4 0 0 1 -3.18-7.43c19.48-8.34 33.33 5.63 33.91 6.23a4.07 4.07 0 0 1 -.1 5.73 4 4 0 0 1 -2.54 1.13" fill="#18190e" opacity=".82"/><path d="m130.88 38.1a4.1 4.1 0 0 0 2.83-1.86c.34-.54 8.18-12.56 23.41-9.63a4 4 0 0 0 1.54-7.93c-20.8-4-31.37 12.57-31.82 13.27a4.06 4.06 0 0 0 4 6.15" fill="#18190e" opacity=".82"/><circle cx="177.09" cy="146.61" opacity=".11" r="56.58"/><circle cx="169.45" cy="121.43" fill="#8baa3d" r="64.47"/><circle cx="169.45" cy="121.43" fill="#fff" r="45.59"/><path d="m123.87 121.44a45.58 45.58 0 0 0 91.16 0 40.5 40.5 0 0 0 -.22-4.44 45.58 45.58 0 0 1 -90.72 0 40.5 40.5 0 0 0 -.22 4.44z" fill="#f2f2f2"/><path d="m202.37 148.55a11.1 11.1 0 1 0 -9.11 9 11.12 11.12 0 0 0 9.11-9z" fill="#18190e" opacity=".82"/><circle cx="333.23" cy="146.61" opacity=".11" r="56.58"/><circle cx="340.87" cy="121.43" fill="#adc55e" r="64.47"/><circle cx="340.87" cy="121.43" fill="#fff" r="45.59"/><path d="m386.45 121.44a45.58 45.58 0 0 1 -91.15 0 40.5 40.5 0 0 1 .22-4.44 45.58 45.58 0 0 0 90.72 0 43.16 43.16 0 0 1 .21 4.44z" fill="#f2f2f2"/><path d="m313.55 152.34a11.11 11.11 0 1 1 9.11 9 11.12 11.12 0 0 1 -9.11-9z" fill="#18190e" opacity=".82"/><g opacity=".24"><path d="m259.68 298.53a236.54 236.54 0 0 1 -45.2-4.29c-7-1.37-13.86-3.06-20.44-5-51-15.25-87.52-47.72-92-86a70 70 0 0 0 -.48 8.08c0 41.78 37.94 77.78 92.51 94.07 6.58 2 13.41 3.65 20.44 5a236.55 236.55 0 0 0 45.2 4.28c87.32 0 158.11-46.27 158.11-103.37a69.1 69.1 0 0 0 -.47-8c-6.35 53.25-74.52 95.23-157.67 95.23z" fill="#798e36"/></g><circle cx="342.72" cy="120.44" fill="#c0e5eb" opacity=".21" r="76.28"/><path d="m342.72 205a81.68 81.68 0 1 1 81.68-81.7 81.77 81.77 0 0 1 -81.68 81.7zm0-152.57a70.89 70.89 0 1 0 70.88 70.87 71 71 0 0 0 -70.88-70.89z" fill="#822244"/><circle cx="169.28" cy="123.3" fill="#c0e5eb" opacity=".21" r="76.28"/><path d="m169.28 205a81.68 81.68 0 1 1 81.72-81.7 81.77 81.77 0 0 1 -81.72 81.7zm0-152.57a70.89 70.89 0 1 0 70.89 70.89 71 71 0 0 0 -70.89-70.91z" fill="#822244"/><path d="m243.52 119.22h21.96v8.17h-21.96z" fill="#822244"/><rect fill="#7a8d9d" height="153.91" rx="7.49" width="292.78" x="106.99" y="352.09"/><rect fill="#acbac3" height="186.8" rx="12.13" width="292.78" x="106.99" y="306.69"/><g opacity=".54"><path d="m399.77 483v-167.35a9 9 0 0 0 -9-9h-273.36c-3.84 0-5.13 5.21-1.89 7.27l277.26 175.71a3.91 3.91 0 0 0 5.42-1.17 10.41 10.41 0 0 0 1.57-5.46z" fill="#cddee6"/></g><path d="m279 260c-18.38-1.11-38.8-3-55.29-11.72a50.39 50.39 0 0 0 61.7 12c-2.19-.14-4.32-.17-6.41-.28z" fill="#822244"/><path d="m283 394.76a26.27 26.27 0 1 1 -39.5-22.69 22.33 22.33 0 0 0 39.42 20.64c.08.67.08 1.36.08 2.05z" fill="#fff"/></svg>