<svg xmlns="http://www.w3.org/2000/svg" version="1.1" xmlns:xlink="http://www.w3.org/1999/xlink" xmlns:svgjs="http://svgjs.com/svgjs" width="1440" height="560" preserveAspectRatio="none" viewBox="0 0 1440 560">
    <g mask="url(&quot;#SvgjsMask1000&quot;)" fill="none">
        <rect width="1440" height="560" x="0" y="0" fill="#0e2a47"></rect>
        <path d="M899.91 121.99L931.76 121.99L931.76 169.97L899.91 169.97z" stroke="#037b0b"></path>
        <path d="M544.74 227.57L574.03 227.57L574.03 270.59L544.74 270.59z" stroke="#d3b714"></path>
        <path d="M738.16 428.3a17.09 17.09 0 1 0 34.12 1.96z" fill="#e73635"></path>
        <path d="M297.51 226L331.99 226L331.99 237.9L297.51 237.9z" fill="#e73635"></path>
        <path d="M702.76 5.33L732.36 5.33L732.36 32.77L702.76 32.77z" fill="#037b0b"></path>
        <path d="M1030.18 183.34a3.42 3.42 0 1 0 4.57 5.09z" stroke="#e73635"></path>
        <path d="M877.96 325.13 a49.78 49.78 0 1 0 99.56 0 a49.78 49.78 0 1 0 -99.56 0z" fill="#d3b714"></path>
        <path d="M375.46 328.38a22.24 22.24 0 1 0-7.54 43.84z" stroke="#037b0b"></path>
        <path d="M765.22 433.49a3.14 3.14 0 1 0 5.38-3.25z" fill="#e73635"></path>
        <path d="M293.39 423.4L342.63 423.4L342.63 451.73L293.39 451.73z" stroke="#e73635"></path>
        <path d="M1240.25 474.94a24.52 24.52 0 1 0-20.59 44.51z" stroke="#e73635"></path>
        <path d="M530.05 310.62L581.67 310.62L581.67 362.24L530.05 362.24z" stroke="#d3b714"></path>
        <path d="M1195.2 226.45L1242.39 226.45L1242.39 273.64L1195.2 273.64z" stroke="#e73635"></path>
        <path d="M628.73 188.95a23.35 23.35 0 1 0 43.32-17.44z" stroke="#037b0b"></path>
        <path d="M277.77 160.81a12.41 12.41 0 1 0-0.4 24.82z" stroke="#e73635"></path>
        <path d="M483.07 514.59L494.53 514.59L494.53 526.05L483.07 526.05z" fill="#037b0b"></path>
        <path d="M1440.24 195.7a34.47 34.47 0 1 0-4.01 68.82z" fill="#e73635"></path>
        <path d="M1296.63 95.12a4.56 4.56 0 1 0 7.22 5.57z" fill="#d3b714"></path>
        <path d="M385 185.19L401.74 185.19L401.74 232.75L385 232.75z" stroke="#037b0b"></path>
        <path d="M847.7 267.64L848.59 267.64L848.59 268.53L847.7 268.53z" stroke="#e73635"></path>
        <path d="M1428.06 298.62L1476.7 298.62L1476.7 347.26L1428.06 347.26z" stroke="#037b0b"></path>
        <path d="M1173.45 189.68L1226.98 189.68L1226.98 244.94L1173.45 244.94z" fill="#e73635"></path>
        <path d="M251.27 164.88a29.77 29.77 0 1 0 57.92-13.8z" fill="#d3b714"></path>
        <path d="M1199.29 371.58 a38.77 38.77 0 1 0 77.54 0 a38.77 38.77 0 1 0 -77.54 0z" fill="#e73635"></path>
        <path d="M60.17 44.52L110.38 44.52L110.38 94.73L60.17 94.73z" fill="#d3b714"></path>
        <path d="M678.1 223.08L680.92 223.08L680.92 228.19L678.1 228.19z" fill="#d3b714"></path>
        <path d="M886.49 439.78L938.62 439.78L938.62 491.91L886.49 491.91z" stroke="#e73635"></path>
        <path d="M474.87 202.6L496.02 202.6L496.02 223.75L474.87 223.75z" stroke="#e73635"></path>
        <path d="M1028.4 60.89L1033.45 60.89L1033.45 65.94L1028.4 65.94z" fill="#d3b714"></path>
        <path d="M145.66 516.85 a2.53 2.53 0 1 0 5.06 0 a2.53 2.53 0 1 0 -5.06 0z" stroke="#e73635"></path>
        <path d="M589.61 548.52L627.74 548.52L627.74 590.23L589.61 590.23z" stroke="#d3b714"></path>
        <path d="M383.86 223.97 a20.73 20.73 0 1 0 41.46 0 a20.73 20.73 0 1 0 -41.46 0z" stroke="#e73635"></path>
        <path d="M1071.6 455.44L1109.93 455.44L1109.93 483.94L1071.6 483.94z" stroke="#e73635"></path>
    </g>
    <defs>
        <mask id="SvgjsMask1000">
            <rect width="1440" height="560" fill="#ffffff"></rect>
        </mask>
    </defs>
</svg>